<svg xmlns="http://www.w3.org/2000/svg" width="227.587" height="120.991" viewBox="0 0 227.587 120.991">
  <g id="Group_2491" data-name="Group 2491" transform="translate(-152.497 -204.192)">
    <g id="Group_2489" data-name="Group 2489" transform="translate(152.497 236.693)">
      <g id="Group_2482" data-name="Group 2482" transform="translate(0 17.299)">
        <path id="Path_7748" data-name="Path 7748" d="M787.824,278.185l-1.392-2.658c1.248-1.507,5.343-3.335,5.343-3.335l5.542-5.045a1.325,1.325,0,1,1,1.627,1.615l-5.987,7.181Z" transform="translate(-779.319 -260.975)" fill="#ffb8b8"/>
        <path id="Path_7749" data-name="Path 7749" d="M886.494,330.855l-1.965.626a6.744,6.744,0,0,1-4.377-.1h0a2.436,2.436,0,0,1-1.573-2.033h0a2.43,2.43,0,0,1,2.023-2.629c1.843-.3,4.218-.452,5.065.556l.009.01Z" transform="translate(-877.315 -313.829)" fill="#0e0071"/>
        <ellipse id="Ellipse_3645" data-name="Ellipse 3645" cx="9.899" cy="9.899" rx="9.899" ry="9.899" transform="translate(13.416 5.364)" fill="#fff"/>
        <path id="Path_7750" data-name="Path 7750" d="M731.575,299.066a9.292,9.292,0,0,0,.664,2.118c1.746,3.694-3.227,2.49-5,2.49-1.943,0-3.8,1.022-3.518-3.518a3.6,3.6,0,0,1,3.518-3.518C728.895,296.637,731.228,297.375,731.575,299.066Z" transform="translate(-704.22 -287.674)" fill="#2f2e41"/>
        <ellipse id="Ellipse_3646" data-name="Ellipse 3646" cx="2.859" cy="2.859" rx="2.859" ry="2.859" transform="translate(20.447 10.281)" fill="#ffb6b6"/>
        <path id="Path_7751" data-name="Path 7751" d="M741.316,303.436a3.275,3.275,0,0,0-4.979,2.858,7.6,7.6,0,0,0,4.541.087l.367-.9.216.9a1.324,1.324,0,0,0,1.422,0A3.344,3.344,0,0,0,741.316,303.436Z" transform="translate(-716.069 -293.21)" fill="#2f2e41"/>
        <path id="Path_7752" data-name="Path 7752" d="M714.956,370.985a9.9,9.9,0,0,0,13.849,1l-.849-2.369a2.548,2.548,0,0,0-2.164-1.486l-.54-.033-1.288-1.111s-3.47-.124-3.419-.183l-2.1,1.264,0-.009-.826.051a2.546,2.546,0,0,0-2.164,1.486Z" transform="translate(-699.338 -349.14)" fill="#fa0"/>
        <path id="Path_7753" data-name="Path 7753" d="M719.526,697.044l.246-3.421a11.062,11.062,0,0,1,5.2-1.165c-2.533,1.958-2.331,5.872-4.085,8.551a6.656,6.656,0,0,1-4.964,2.941l-2.109,1.213a11.154,11.154,0,0,1,2.6-8.971,10.767,10.767,0,0,1,2.03-1.785C718.9,695.731,719.526,697.044,719.526,697.044Z" transform="translate(-695.342 -634.41)" fill="#f2f2f2"/>
        <path id="Path_7755" data-name="Path 7755" d="M615.694,640.181h1.645l.782-6.344h-2.427Z" transform="translate(-600.735 -570.584)" fill="#9e616a"/>
        <path id="Path_7756" data-name="Path 7756" d="M792.567,778.222h5.3v-.067a2.064,2.064,0,0,0-2.064-2.064h0l-.969-.735-1.807.735h-.463Z" transform="translate(-778.027 -707.031)" fill="#2f2e41"/>
        <path id="Path_7757" data-name="Path 7757" d="M732.592,640.181h1.645l.782-6.344h-2.427Z" transform="translate(-732.128 -570.584)" fill="#9e616a"/>
        <path id="Path_7758" data-name="Path 7758" d="M909.465,778.222h5.3v-.067a2.064,2.064,0,0,0-2.064-2.064h0l-.969-.735-1.807.735h-.463Z" transform="translate(-909.42 -707.031)" fill="#2f2e41"/>
        <path id="Path_7759" data-name="Path 7759" d="M803.028,509.36,801.645,522.5s-1.842,13.159-1.5,14.974-.086,2.075-.086,2.075l3.156-.225a2.479,2.479,0,0,1,.432-1.643c.519-.519.259-2.075.259-2.075l6.121-21.407,3.718,11.24s.605,12.364.692,12.537.346,2.507.346,2.507h3.2s-.432-1.383.173-1.816,1.124-.086.605-.865a2.821,2.821,0,0,1-.519-2.162,11.129,11.129,0,0,0,.173-2.162s-.259-23.344-1.729-24.122S803.028,509.36,803.028,509.36Z" transform="translate(-800.062 -473.716)" fill="#5f6368"/>
        <ellipse id="Ellipse_3647" data-name="Ellipse 3647" cx="3.402" cy="3.402" rx="3.402" ry="3.402" transform="translate(6.114 2.23)" fill="#ffb8b8"/>
        <path id="Path_7760" data-name="Path 7760" d="M814.669,332.338c6.589,1.361,15.322-.979,15.322-.979l-2.329-10.1.828-10.567a2.876,2.876,0,0,0-1.78-2.933l-1.581-.592-1.307-1.871-3.733.122-1.492,1.964-1.178.625-2.553,1.354-.011.006v.006l.8,7.771.483,4.686s-1.467,5.27-1.166,5.969.039.361-.034.734-.3.4-.33,1.132S814.669,332.338,814.669,332.338Z" transform="translate(-812.88 -295.262)" fill="#0e0071"/>
        <path id="Path_7762" data-name="Path 7762" d="M839.745,233.228a10.482,10.482,0,0,1-1.779-.171,5.316,5.316,0,0,1-2.213-1.711h0a5.154,5.154,0,0,1-.5-1.6,4.685,4.685,0,0,1,.915-3.7,1.479,1.479,0,0,1,.611-.495c.021-.008.044-.015.066-.02a1.825,1.825,0,0,0,.923-.538,1.5,1.5,0,0,1,.155-.151,2.249,2.249,0,0,1,.95-.447,3.978,3.978,0,0,1,2.388.5,2.524,2.524,0,0,0,1.523.086.143.143,0,0,1,.133.05,1.01,1.01,0,0,0,.679.291c.156.011.314.231.505.519.043.065.094.141.13.188l.007-.087.086.1a1.225,1.225,0,0,1-.6,1.982,2.388,2.388,0,0,1-.482.064c-.1.006-.2.013-.3.027a1.848,1.848,0,0,0-1.4,1.163.483.483,0,0,1-.735.216.8.8,0,0,0-.724-.151.529.529,0,0,0-.241.26.69.69,0,0,1-.27.3c-.4.194-.452,1.1-.329,1.855.118.73.376,1.263.626,1.3.193.025.214.039.227.074l.012.031-.023.028A.789.789,0,0,1,839.745,233.228Z" transform="translate(-830.062 -224.357)" fill="#2f2e41"/>
        <path id="Path_7763" data-name="Path 7763" d="M693.765,286.663a10.023,10.023,0,1,0-10.023-10.023A10.023,10.023,0,0,0,693.765,286.663Zm0-19.8a9.775,9.775,0,1,1-9.775,9.775A9.775,9.775,0,0,1,693.765,266.865Z" transform="translate(-670.45 -261.377)" fill="#3f3d56"/>
        <path id="Path_7770" data-name="Path 7770" d="M708.2,370.5l1.5-2.6c1.941.247,5.678,2.725,5.678,2.725L722.6,372.6a1.324,1.324,0,1,1-.492,2.238l-9.271-1.209Z" transform="translate(-694.023 -350.1)" fill="#ffb8b8"/>
        <path id="Path_7771" data-name="Path 7771" d="M816.679,336.13l-3.355-2.81-.488-2.262a2.436,2.436,0,0,1,.875-2.418h0a2.43,2.43,0,0,1,3.3.3c1.243,1.394,2.641,3.319,2.244,4.575l0,.013Z" transform="translate(-801.99 -315.261)" fill="#0e0071"/>
      </g>
      <g id="place_black_24dp" transform="translate(26.037)">
        <path id="Path_1526" data-name="Path 1526" d="M0,0H19.562V19.562H0Z" fill="none"/>
        <path id="Path_1527" data-name="Path 1527" d="M10.224,10A1.6,1.6,0,1,1,11.78,8.4,1.583,1.583,0,0,1,10.224,10Zm4.668-1.44a4.677,4.677,0,1,0-9.336,0c0,1.873,1.517,4.353,4.668,7.314C13.375,12.916,14.893,10.435,14.893,8.562ZM10.224,2a6.281,6.281,0,0,1,6.224,6.562q0,3.985-6.224,9.443Q4,12.544,4,8.562A6.281,6.281,0,0,1,10.224,2Z" transform="translate(-0.443 -0.222)" fill="#0070fc"/>
      </g>
    </g>
    <g id="Group_2488" data-name="Group 2488" transform="translate(209.436 266.855)">
      <g id="Group_2486" data-name="Group 2486" transform="translate(19.562 0)">
        <path id="Path_7754" data-name="Path 7754" d="M203.886,209.113l.3-4.218a13.645,13.645,0,0,1,6.406-1.437c-3.124,2.415-2.874,7.241-5.037,10.543a8.207,8.207,0,0,1-6.12,3.627l-2.6,1.5a13.753,13.753,0,0,1,3.2-11.061,13.286,13.286,0,0,1,2.5-2.2C203.112,207.494,203.886,209.113,203.886,209.113Z" transform="translate(-174.969 -203.455)" fill="#f2f2f2"/>
        <ellipse id="Ellipse_3650" data-name="Ellipse 3650" cx="12.205" cy="12.205" rx="12.205" ry="12.205" transform="translate(7.741 3.694)" fill="#fff"/>
        <path id="Path_7766" data-name="Path 7766" d="M271.268,260.435a5.482,5.482,0,0,0-3.239-3.627,5.635,5.635,0,0,0-5.1,1.474c-2.183,2.175-2.715,9.648-1.216,12.01.3-.016,1.327-.027,1.629-.039l.427-1.423v1.409q.721-.022,1.454-.031a6.328,6.328,0,0,0,6.248-6.172A14.5,14.5,0,0,0,271.268,260.435Z" transform="translate(-245.665 -248.506)" fill="#2f2e41"/>
        <ellipse id="Ellipse_3651" data-name="Ellipse 3651" cx="3.478" cy="3.478" rx="3.478" ry="3.478" transform="translate(16.649 10.303)" fill="#ffb8b8"/>
        <path id="Path_7767" data-name="Path 7767" d="M285.482,262.5l-4-2.005h0a5.034,5.034,0,0,0-2.948,4.171l-.1,1.2,1.677-.427.184-1.529.285,1.41.774-.2-.007-2.374.774,2.372,2.764-.635Z" transform="translate(-262.353 -251.774)" fill="#2f2e41"/>
        <path id="Path_7768" data-name="Path 7768" d="M246.8,331.706a12.2,12.2,0,0,0,17.075,1.234l-1.047-2.921a3.141,3.141,0,0,0-2.668-1.832l-.666-.041-1.588-1.37s-4.279-.153-4.215-.226l-2.592,1.559,0-.011-1.019.062a3.14,3.14,0,0,0-2.668,1.832Z" transform="translate(-235.911 -307.73)" fill="#0070fc"/>
        <path id="Path_7769" data-name="Path 7769" d="M230.777,251.333a12.358,12.358,0,1,0-12.358-12.358A12.358,12.358,0,0,0,230.777,251.333Zm0-24.41a12.052,12.052,0,1,1-12.052,12.052A12.052,12.052,0,0,1,230.777,226.923Z" transform="translate(-210.831 -223.076)" fill="#3f3d56"/>
        <path id="Path_7772" data-name="Path 7772" d="M309.06,400.933H324.6a1.573,1.573,0,0,0,1.571-1.571v-9.573a1.573,1.573,0,0,0-1.571-1.571H309.06a1.573,1.573,0,0,0-1.571,1.571v9.573A1.573,1.573,0,0,0,309.06,400.933Z" transform="translate(-307.489 -359.969)" fill="#e6e6e6"/>
        <path id="Path_7773" data-name="Path 7773" d="M321.841,406.532h8.275a1.473,1.473,0,0,0,1.472-1.471v-7.307a1.473,1.473,0,0,0-1.472-1.472H316.758a1.473,1.473,0,0,0-1.472,1.472v2.223A6.562,6.562,0,0,0,321.841,406.532Z" transform="translate(-314.094 -366.801)" fill="#fff"/>
        <path id="Path_7774" data-name="Path 7774" d="M331.7,418.587h10.693a.349.349,0,0,0,0-.7H331.7a.349.349,0,0,0,0,.7Z" transform="translate(-327.699 -385.104)" fill="#0070fc"/>
        <path id="Path_7775" data-name="Path 7775" d="M331.7,427.6h1.673a.349.349,0,0,0,0-.7H331.7a.349.349,0,0,0,0,.7Z" transform="translate(-318.678 -392.739)" fill="#0070fc"/>
        <path id="Path_7776" data-name="Path 7776" d="M331.7,436.613h4.635a.349.349,0,1,0,0-.7H331.7a.349.349,0,1,0,0,.7Z" transform="translate(-321.641 -400.375)" fill="#0070fc"/>
        <ellipse id="Ellipse_3652" data-name="Ellipse 3652" cx="3.288" cy="3.288" rx="3.288" ry="3.288" transform="translate(15.94 24.77)" fill="#3f3d56"/>
      </g>
      <g id="place_black_24dp-2" data-name="place_black_24dp" transform="translate(0 2.46)">
        <path id="Path_1526-2" data-name="Path 1526" d="M0,0H19.562V19.562H0Z" fill="none"/>
        <path id="Path_1527-2" data-name="Path 1527" d="M10.224,10A1.6,1.6,0,1,1,11.78,8.4,1.583,1.583,0,0,1,10.224,10Zm4.668-1.44a4.677,4.677,0,1,0-9.336,0c0,1.873,1.517,4.353,4.668,7.314C13.375,12.916,14.893,10.435,14.893,8.562ZM10.224,2a6.281,6.281,0,0,1,6.224,6.562q0,3.985-6.224,9.443Q4,12.544,4,8.562A6.281,6.281,0,0,1,10.224,2Z" transform="translate(-0.443 -0.222)" fill="#0e0071"/>
      </g>
    </g>
    <g id="Group_2487" data-name="Group 2487" transform="translate(264.625 204.192)">
      <g id="Group_2480" data-name="Group 2480" transform="translate(0 3.471)">
        <path id="Path_7754-2" data-name="Path 7754" d="M203.393,209.113l-.3-4.218a13.645,13.645,0,0,0-6.406-1.437c3.124,2.415,2.874,7.241,5.037,10.543a8.207,8.207,0,0,0,6.12,3.627l2.6,1.5a13.753,13.753,0,0,0-3.2-11.061,13.286,13.286,0,0,0-2.5-2.2C204.168,207.494,203.393,209.113,203.393,209.113Z" transform="translate(-196.684 -203.455)" fill="#f2f2f2"/>
        <ellipse id="Ellipse_3650-2" data-name="Ellipse 3650" cx="12.205" cy="12.205" rx="12.205" ry="12.205" transform="translate(3.476 3.694)" fill="#fff"/>
        <path id="Path_7766-2" data-name="Path 7766" d="M261.07,260.435a5.482,5.482,0,0,1,3.239-3.627,5.635,5.635,0,0,1,5.1,1.474c2.183,2.175,2.715,9.648,1.216,12.01-.3-.016-1.327-.027-1.629-.039l-.427-1.423v1.409q-.721-.022-1.454-.031a6.328,6.328,0,0,1-6.248-6.172A14.507,14.507,0,0,1,261.07,260.435Z" transform="translate(-251.046 -248.506)" fill="#2f2e41"/>
        <ellipse id="Ellipse_3651-2" data-name="Ellipse 3651" cx="3.478" cy="3.478" rx="3.478" ry="3.478" transform="translate(12.022 10.303)" fill="#9e616a"/>
        <path id="Path_7767-2" data-name="Path 7767" d="M278.429,262.5l4-2.005h0a5.034,5.034,0,0,1,2.948,4.171l.1,1.2-1.677-.427-.184-1.529-.285,1.41-.774-.2.007-2.374-.775,2.372-2.764-.635Z" transform="translate(-265.931 -251.774)" fill="#2f2e41"/>
        <path id="Path_7768-2" data-name="Path 7768" d="M263.876,331.706A12.2,12.2,0,0,1,246.8,332.94l1.047-2.921a3.141,3.141,0,0,1,2.668-1.832l.666-.041,1.588-1.37s4.279-.153,4.215-.226l2.592,1.559,0-.011,1.019.062a3.14,3.14,0,0,1,2.668,1.832Z" transform="translate(-239.138 -307.73)" fill="#fa0"/>
        <path id="Path_7769-2" data-name="Path 7769" d="M230.777,251.333a12.358,12.358,0,1,1,12.358-12.358A12.358,12.358,0,0,1,230.777,251.333Zm0-24.41a12.052,12.052,0,1,0,12.052,12.052A12.052,12.052,0,0,0,230.777,226.923Z" transform="translate(-215.097 -223.076)" fill="#3f3d56"/>
        <path id="Path_7772-2" data-name="Path 7772" d="M324.6,400.933H309.06a1.573,1.573,0,0,1-1.571-1.571v-9.573a1.573,1.573,0,0,1,1.571-1.571H324.6a1.573,1.573,0,0,1,1.571,1.571v9.573A1.573,1.573,0,0,1,324.6,400.933Z" transform="translate(-290.548 -359.969)" fill="#e6e6e6"/>
        <path id="Path_7773-2" data-name="Path 7773" d="M325.034,406.532h-8.275a1.473,1.473,0,0,1-1.472-1.471v-7.307a1.473,1.473,0,0,1,1.472-1.472h13.358a1.473,1.473,0,0,1,1.472,1.472v2.223A6.562,6.562,0,0,1,325.034,406.532Z" transform="translate(-297.154 -366.801)" fill="#fff"/>
        <path id="Path_7774-2" data-name="Path 7774" d="M342.389,418.587H331.7a.349.349,0,0,1,0-.7h10.693a.349.349,0,0,1,0,.7Z" transform="translate(-310.758 -385.104)" fill="#0070fc"/>
        <path id="Path_7775-2" data-name="Path 7775" d="M333.368,427.6H331.7a.349.349,0,0,1,0-.7h1.673a.349.349,0,0,1,0,.7Z" transform="translate(-310.758 -392.739)" fill="#0070fc"/>
        <path id="Path_7776-2" data-name="Path 7776" d="M336.331,436.613H331.7a.349.349,0,0,1,0-.7h4.635a.349.349,0,1,1,0,.7Z" transform="translate(-310.758 -400.375)" fill="#0070fc"/>
        <ellipse id="Ellipse_3652-2" data-name="Ellipse 3652" cx="3.288" cy="3.288" rx="3.288" ry="3.288" transform="translate(13.11 24.77)" fill="#3f3d56"/>
      </g>
      <g id="place_black_24dp-3" data-name="place_black_24dp" transform="translate(33.184)">
        <path id="Path_1526-3" data-name="Path 1526" d="M0,0H19.562V19.562H0Z" fill="none"/>
        <path id="Path_1527-3" data-name="Path 1527" d="M10.224,10A1.6,1.6,0,1,1,11.78,8.4,1.583,1.583,0,0,1,10.224,10Zm4.668-1.44a4.677,4.677,0,1,0-9.336,0c0,1.873,1.517,4.353,4.668,7.314C13.375,12.916,14.893,10.435,14.893,8.562ZM10.224,2a6.281,6.281,0,0,1,6.224,6.562q0,3.985-6.224,9.443Q4,12.544,4,8.562A6.281,6.281,0,0,1,10.224,2Z" transform="translate(-0.443 -0.222)" fill="#ba0101"/>
      </g>
    </g>
    <g id="Group_2490" data-name="Group 2490" transform="translate(317.371 261.376)">
      <g id="Group_2481" data-name="Group 2481" transform="translate(18.533 13.603)">
        <ellipse id="Ellipse_3648" data-name="Ellipse 3648" cx="12.205" cy="12.205" rx="12.205" ry="12.205" transform="translate(0.153 0.153)" fill="#fff"/>
        <ellipse id="Ellipse_3649" data-name="Ellipse 3649" cx="3.98" cy="3.98" rx="3.98" ry="3.98" transform="translate(8.943 5.643)" fill="#ffb8b8"/>
        <path id="bf427902-b9bf-4946-b5d7-5c1c7e04535e" d="M467.016,129.465a1.374,1.374,0,0,0-1.243-2.161,3.206,3.206,0,0,0-3.924-.322,1.989,1.989,0,0,0-1.671,1.223.741.741,0,0,0-1.037.54,5.634,5.634,0,0,0,0,3.422,6.7,6.7,0,0,0,.828,1.8s-.436-2.011,2.051-2.191,4.769-1.738,4.976.243.435,1.086.435,1.086S469.4,130.275,467.016,129.465Z" transform="translate(-450.589 -122.471)" fill="#2f2e41"/>
        <path id="Path_7764" data-name="Path 7764" d="M451,205.96a12.2,12.2,0,0,1-17.075,1.234l1.047-2.921a3.141,3.141,0,0,1,2.668-1.832l.666-.041,1.588-1.37s4.279-.153,4.215-.226l2.592,1.559,0-.011,1.019.062a3.14,3.14,0,0,1,2.668,1.832Z" transform="translate(-429.459 -185.486)" fill="#00c158"/>
        <path id="Path_7765" data-name="Path 7765" d="M417.1,125.333a12.358,12.358,0,1,1,12.358-12.358A12.358,12.358,0,0,1,417.1,125.333Zm0-24.41a12.052,12.052,0,1,0,12.052,12.052A12.052,12.052,0,0,0,417.1,100.923Z" transform="translate(-404.743 -100.617)" fill="#3f3d56"/>
        <path id="Path_7777" data-name="Path 7777" d="M588.6,116.933H573.06a1.573,1.573,0,0,1-1.571-1.571v-9.573a1.573,1.573,0,0,1,1.571-1.571H588.6a1.573,1.573,0,0,1,1.571,1.571v9.573a1.573,1.573,0,0,1-1.571,1.571Z" transform="translate(-545.995 -103.667)" fill="#e6e6e6"/>
        <path id="Path_7778" data-name="Path 7778" d="M589.034,122.532h-8.275a1.473,1.473,0,0,1-1.471-1.471v-7.307a1.473,1.473,0,0,1,1.471-1.472h13.359a1.473,1.473,0,0,1,1.471,1.472v2.224a6.562,6.562,0,0,1-6.555,6.555Z" transform="translate(-552.601 -110.499)" fill="#fff"/>
        <path id="Path_7779" data-name="Path 7779" d="M606.389,134.587H595.7a.349.349,0,0,1,0-.7h10.693a.349.349,0,1,1,0,.7Z" transform="translate(-566.205 -128.802)" fill="#fa0"/>
        <path id="Path_7780" data-name="Path 7780" d="M597.368,143.6H595.7a.349.349,0,0,1,0-.7h1.673a.349.349,0,1,1,0,.7Z" transform="translate(-566.205 -136.437)" fill="#fa0"/>
        <path id="Path_7781" data-name="Path 7781" d="M600.33,152.613H595.7a.349.349,0,0,1,0-.7h4.635a.349.349,0,1,1,0,.7Z" transform="translate(-566.205 -144.073)" fill="#fa0"/>
        <ellipse id="Ellipse_3653" data-name="Ellipse 3653" cx="3.288" cy="3.288" rx="3.288" ry="3.288" transform="translate(21.663 8.539)" fill="#3f3d56"/>
      </g>
      <g id="place_black_24dp-4" data-name="place_black_24dp" transform="translate(0)">
        <path id="Path_1526-4" data-name="Path 1526" d="M0,0H19.562V19.562H0Z" fill="none"/>
        <path id="Path_1527-4" data-name="Path 1527" d="M10.224,10A1.6,1.6,0,1,1,11.78,8.4,1.583,1.583,0,0,1,10.224,10Zm4.668-1.44a4.677,4.677,0,1,0-9.336,0c0,1.873,1.517,4.353,4.668,7.314C13.375,12.916,14.893,10.435,14.893,8.562ZM10.224,2a6.281,6.281,0,0,1,6.224,6.562q0,3.985-6.224,9.443Q4,12.544,4,8.562A6.281,6.281,0,0,1,10.224,2Z" transform="translate(-0.443 -0.222)" fill="#fa0"/>
      </g>
    </g>
  </g>
</svg>
